<mxfile host="app.diagrams.net" modified="2023-12-19T22:29:59.538Z" agent="Mozilla/5.0 (Windows NT 10.0; Win64; x64) AppleWebKit/537.36 (KHTML, like Gecko) Chrome/119.0.0.0 Safari/537.36" etag="LPEoBqHLHcQmR1VnVWPg" version="22.1.11" type="github">
  <diagram name="Side-1" id="hf8gmHLvzUlwny5JRPWA">
    <mxGraphModel dx="2607" dy="1422" grid="0" gridSize="10" guides="1" tooltips="1" connect="1" arrows="1" fold="1" page="1" pageScale="1" pageWidth="1169" pageHeight="827" math="0" shadow="0">
      <root>
        <mxCell id="0" />
        <mxCell id="1" parent="0" />
        <mxCell id="fHgrOc14rEPT_G6fywUK-1" value="Illustrate with a UML activity diagram how your&amp;nbsp;&lt;em style=&quot;box-sizing: border-box; color: rgb(230, 237, 243); font-family: -apple-system, BlinkMacSystemFont, &amp;quot;Segoe UI&amp;quot;, &amp;quot;Noto Sans&amp;quot;, Helvetica, Arial, sans-serif, &amp;quot;Apple Color Emoji&amp;quot;, &amp;quot;Segoe UI Emoji&amp;quot;; font-size: 10px; text-align: start; background-color: rgb(13, 17, 23);&quot;&gt;Chirp!&lt;/em&gt;&lt;span style=&quot;color: rgb(230, 237, 243); font-family: -apple-system, BlinkMacSystemFont, &amp;quot;Segoe UI&amp;quot;, &amp;quot;Noto Sans&amp;quot;, Helvetica, Arial, sans-serif, &amp;quot;Apple Color Emoji&amp;quot;, &amp;quot;Segoe UI Emoji&amp;quot;; font-size: 10px; text-align: start; background-color: rgb(13, 17, 23);&quot;&gt;&amp;nbsp;applications are build, tested, released, and deployed. &lt;br style=&quot;font-size: 10px;&quot;&gt;That is, illustrate the flow of activities in your respective GitHub Actions workflows.&lt;/span&gt;" style="text;html=1;align=center;verticalAlign=middle;resizable=0;points=[];autosize=1;strokeColor=none;fillColor=none;fontSize=10;" vertex="1" parent="1">
          <mxGeometry x="640" y="8" width="500" height="40" as="geometry" />
        </mxCell>
        <mxCell id="fHgrOc14rEPT_G6fywUK-61" value="" style="edgeStyle=orthogonalEdgeStyle;shape=connector;rounded=0;orthogonalLoop=1;jettySize=auto;html=1;labelBackgroundColor=default;strokeColor=#ff0000;align=center;verticalAlign=bottom;fontFamily=Helvetica;fontSize=11;fontColor=default;endArrow=open;endSize=8;" edge="1" parent="1" source="fHgrOc14rEPT_G6fywUK-2" target="fHgrOc14rEPT_G6fywUK-58">
          <mxGeometry relative="1" as="geometry" />
        </mxCell>
        <mxCell id="fHgrOc14rEPT_G6fywUK-2" value="Commit Pushed" style="rounded=1;whiteSpace=wrap;html=1;arcSize=40;fontColor=#000000;fillColor=#ffffc0;strokeColor=#ff0000;" vertex="1" parent="1">
          <mxGeometry x="100" y="98" width="120" height="40" as="geometry" />
        </mxCell>
        <mxCell id="fHgrOc14rEPT_G6fywUK-68" value="" style="edgeStyle=orthogonalEdgeStyle;shape=connector;rounded=0;orthogonalLoop=1;jettySize=auto;html=1;labelBackgroundColor=default;strokeColor=#ff0000;align=center;verticalAlign=bottom;fontFamily=Helvetica;fontSize=11;fontColor=default;endArrow=open;endSize=8;" edge="1" parent="1" source="fHgrOc14rEPT_G6fywUK-4" target="fHgrOc14rEPT_G6fywUK-64">
          <mxGeometry relative="1" as="geometry" />
        </mxCell>
        <mxCell id="fHgrOc14rEPT_G6fywUK-4" value="Pull request" style="rounded=1;whiteSpace=wrap;html=1;arcSize=40;fontColor=#000000;fillColor=#ffffc0;strokeColor=#ff0000;" vertex="1" parent="1">
          <mxGeometry x="300" y="98" width="120" height="40" as="geometry" />
        </mxCell>
        <mxCell id="fHgrOc14rEPT_G6fywUK-16" style="edgeStyle=orthogonalEdgeStyle;shape=connector;rounded=0;orthogonalLoop=1;jettySize=auto;html=1;exitX=0.5;exitY=1;exitDx=0;exitDy=0;labelBackgroundColor=default;strokeColor=#ff0000;align=center;verticalAlign=bottom;fontFamily=Helvetica;fontSize=11;fontColor=default;endArrow=open;endSize=8;" edge="1" parent="1" source="fHgrOc14rEPT_G6fywUK-6" target="fHgrOc14rEPT_G6fywUK-8">
          <mxGeometry relative="1" as="geometry" />
        </mxCell>
        <mxCell id="fHgrOc14rEPT_G6fywUK-6" value="Run: Dotnet Build" style="rounded=1;whiteSpace=wrap;html=1;arcSize=40;fontColor=#000000;fillColor=#ffffc0;strokeColor=#ff0000;" vertex="1" parent="1">
          <mxGeometry x="100" y="338" width="120" height="40" as="geometry" />
        </mxCell>
        <mxCell id="fHgrOc14rEPT_G6fywUK-17" style="edgeStyle=orthogonalEdgeStyle;shape=connector;rounded=0;orthogonalLoop=1;jettySize=auto;html=1;exitX=0.5;exitY=1;exitDx=0;exitDy=0;labelBackgroundColor=default;strokeColor=#ff0000;align=center;verticalAlign=bottom;fontFamily=Helvetica;fontSize=11;fontColor=default;endArrow=open;endSize=8;" edge="1" parent="1" source="fHgrOc14rEPT_G6fywUK-8">
          <mxGeometry relative="1" as="geometry">
            <mxPoint x="160" y="498" as="targetPoint" />
          </mxGeometry>
        </mxCell>
        <mxCell id="fHgrOc14rEPT_G6fywUK-18" value="YES" style="edgeLabel;html=1;align=center;verticalAlign=middle;resizable=0;points=[];fontSize=11;fontFamily=Helvetica;fontColor=default;" vertex="1" connectable="0" parent="fHgrOc14rEPT_G6fywUK-17">
          <mxGeometry x="-0.2213" y="2" relative="1" as="geometry">
            <mxPoint as="offset" />
          </mxGeometry>
        </mxCell>
        <mxCell id="fHgrOc14rEPT_G6fywUK-19" style="edgeStyle=orthogonalEdgeStyle;shape=connector;rounded=0;orthogonalLoop=1;jettySize=auto;html=1;exitX=0;exitY=0.5;exitDx=0;exitDy=0;labelBackgroundColor=default;strokeColor=#ff0000;align=center;verticalAlign=bottom;fontFamily=Helvetica;fontSize=11;fontColor=default;endArrow=open;endSize=8;" edge="1" parent="1" source="fHgrOc14rEPT_G6fywUK-8">
          <mxGeometry relative="1" as="geometry">
            <mxPoint x="40" y="422" as="targetPoint" />
          </mxGeometry>
        </mxCell>
        <mxCell id="fHgrOc14rEPT_G6fywUK-20" value="NO" style="edgeLabel;html=1;align=center;verticalAlign=middle;resizable=0;points=[];fontSize=11;fontFamily=Helvetica;fontColor=default;" vertex="1" connectable="0" parent="fHgrOc14rEPT_G6fywUK-19">
          <mxGeometry x="-0.2239" relative="1" as="geometry">
            <mxPoint as="offset" />
          </mxGeometry>
        </mxCell>
        <mxCell id="fHgrOc14rEPT_G6fywUK-8" value="Success" style="rhombus;whiteSpace=wrap;html=1;fontColor=#000000;fillColor=#ffffc0;strokeColor=#ff0000;" vertex="1" parent="1">
          <mxGeometry x="120" y="402" width="80" height="40" as="geometry" />
        </mxCell>
        <mxCell id="fHgrOc14rEPT_G6fywUK-21" value="" style="ellipse;html=1;shape=endState;fillColor=#000000;strokeColor=#ff0000;fontFamily=Helvetica;fontSize=11;fontColor=default;" vertex="1" parent="1">
          <mxGeometry x="145" y="678" width="30" height="30" as="geometry" />
        </mxCell>
        <mxCell id="fHgrOc14rEPT_G6fywUK-114" style="edgeStyle=orthogonalEdgeStyle;shape=connector;rounded=0;orthogonalLoop=1;jettySize=auto;html=1;exitX=0.5;exitY=1;exitDx=0;exitDy=0;labelBackgroundColor=default;strokeColor=#ff0000;align=center;verticalAlign=bottom;fontFamily=Helvetica;fontSize=11;fontColor=default;endArrow=open;endSize=8;" edge="1" parent="1" source="fHgrOc14rEPT_G6fywUK-22" target="fHgrOc14rEPT_G6fywUK-4">
          <mxGeometry relative="1" as="geometry" />
        </mxCell>
        <mxCell id="fHgrOc14rEPT_G6fywUK-117" style="edgeStyle=orthogonalEdgeStyle;shape=connector;rounded=0;orthogonalLoop=1;jettySize=auto;html=1;exitX=1;exitY=0.5;exitDx=0;exitDy=0;labelBackgroundColor=default;strokeColor=#ff0000;align=center;verticalAlign=bottom;fontFamily=Helvetica;fontSize=11;fontColor=default;endArrow=open;endSize=8;" edge="1" parent="1" source="fHgrOc14rEPT_G6fywUK-22" target="fHgrOc14rEPT_G6fywUK-115">
          <mxGeometry relative="1" as="geometry" />
        </mxCell>
        <mxCell id="fHgrOc14rEPT_G6fywUK-22" value="" style="ellipse;html=1;shape=startState;fillColor=#000000;strokeColor=#ff0000;fontFamily=Helvetica;fontSize=11;fontColor=default;" vertex="1" parent="1">
          <mxGeometry x="345" y="33" width="30" height="30" as="geometry" />
        </mxCell>
        <mxCell id="fHgrOc14rEPT_G6fywUK-23" value="" style="edgeStyle=orthogonalEdgeStyle;html=1;verticalAlign=bottom;endArrow=open;endSize=8;strokeColor=#ff0000;rounded=0;labelBackgroundColor=default;align=center;fontFamily=Helvetica;fontSize=11;fontColor=default;shape=connector;" edge="1" source="fHgrOc14rEPT_G6fywUK-22" parent="1">
          <mxGeometry relative="1" as="geometry">
            <mxPoint x="160" y="98" as="targetPoint" />
          </mxGeometry>
        </mxCell>
        <mxCell id="fHgrOc14rEPT_G6fywUK-25" value="Start" style="text;html=1;align=center;verticalAlign=middle;resizable=0;points=[];autosize=1;strokeColor=none;fillColor=none;fontSize=11;fontFamily=Helvetica;fontColor=default;" vertex="1" parent="1">
          <mxGeometry x="335" y="3" width="50" height="30" as="geometry" />
        </mxCell>
        <mxCell id="fHgrOc14rEPT_G6fywUK-26" value="End" style="text;html=1;align=center;verticalAlign=middle;resizable=0;points=[];autosize=1;strokeColor=none;fillColor=none;fontSize=11;fontFamily=Helvetica;fontColor=default;" vertex="1" parent="1">
          <mxGeometry x="140" y="678" width="40" height="30" as="geometry" />
        </mxCell>
        <mxCell id="fHgrOc14rEPT_G6fywUK-40" style="edgeStyle=orthogonalEdgeStyle;shape=connector;rounded=0;orthogonalLoop=1;jettySize=auto;html=1;labelBackgroundColor=default;strokeColor=#ff0000;align=center;verticalAlign=bottom;fontFamily=Helvetica;fontSize=11;fontColor=default;endArrow=open;endSize=8;" edge="1" parent="1" source="fHgrOc14rEPT_G6fywUK-27" target="fHgrOc14rEPT_G6fywUK-37">
          <mxGeometry relative="1" as="geometry" />
        </mxCell>
        <mxCell id="fHgrOc14rEPT_G6fywUK-27" value="Run: Dotnet Build" style="rounded=1;whiteSpace=wrap;html=1;arcSize=40;fontColor=#000000;fillColor=#ffffc0;strokeColor=#ff0000;fontFamily=Helvetica;fontSize=11;" vertex="1" parent="1">
          <mxGeometry x="300" y="338" width="120" height="40" as="geometry" />
        </mxCell>
        <mxCell id="fHgrOc14rEPT_G6fywUK-43" style="edgeStyle=orthogonalEdgeStyle;shape=connector;rounded=0;orthogonalLoop=1;jettySize=auto;html=1;labelBackgroundColor=default;strokeColor=#ff0000;align=center;verticalAlign=bottom;fontFamily=Helvetica;fontSize=11;fontColor=default;endArrow=open;endSize=8;" edge="1" parent="1" source="fHgrOc14rEPT_G6fywUK-37">
          <mxGeometry relative="1" as="geometry">
            <mxPoint x="480" y="422" as="targetPoint" />
          </mxGeometry>
        </mxCell>
        <mxCell id="fHgrOc14rEPT_G6fywUK-45" value="NO" style="edgeLabel;html=1;align=center;verticalAlign=middle;resizable=0;points=[];fontSize=11;fontFamily=Helvetica;fontColor=default;" vertex="1" connectable="0" parent="fHgrOc14rEPT_G6fywUK-43">
          <mxGeometry x="-0.3292" y="1" relative="1" as="geometry">
            <mxPoint as="offset" />
          </mxGeometry>
        </mxCell>
        <mxCell id="fHgrOc14rEPT_G6fywUK-48" style="edgeStyle=orthogonalEdgeStyle;shape=connector;rounded=0;orthogonalLoop=1;jettySize=auto;html=1;exitX=0.5;exitY=1;exitDx=0;exitDy=0;entryX=0.5;entryY=0;entryDx=0;entryDy=0;labelBackgroundColor=default;strokeColor=#ff0000;align=center;verticalAlign=bottom;fontFamily=Helvetica;fontSize=11;fontColor=default;endArrow=open;endSize=8;" edge="1" parent="1" source="fHgrOc14rEPT_G6fywUK-37" target="fHgrOc14rEPT_G6fywUK-46">
          <mxGeometry relative="1" as="geometry" />
        </mxCell>
        <mxCell id="fHgrOc14rEPT_G6fywUK-89" value="YES" style="edgeLabel;html=1;align=center;verticalAlign=middle;resizable=0;points=[];fontSize=11;fontFamily=Helvetica;fontColor=default;" vertex="1" connectable="0" parent="fHgrOc14rEPT_G6fywUK-48">
          <mxGeometry x="-0.2143" y="1" relative="1" as="geometry">
            <mxPoint as="offset" />
          </mxGeometry>
        </mxCell>
        <mxCell id="fHgrOc14rEPT_G6fywUK-37" value="Success" style="rhombus;whiteSpace=wrap;html=1;fontColor=#000000;fillColor=#ffffc0;strokeColor=#ff0000;" vertex="1" parent="1">
          <mxGeometry x="320" y="402" width="80" height="40" as="geometry" />
        </mxCell>
        <mxCell id="fHgrOc14rEPT_G6fywUK-46" value="Run: Dotnet Publish" style="rounded=1;whiteSpace=wrap;html=1;arcSize=40;fontColor=#000000;fillColor=#ffffc0;strokeColor=#ff0000;fontFamily=Helvetica;fontSize=11;" vertex="1" parent="1">
          <mxGeometry x="300" y="498" width="120" height="40" as="geometry" />
        </mxCell>
        <mxCell id="fHgrOc14rEPT_G6fywUK-47" value="" style="edgeStyle=orthogonalEdgeStyle;html=1;verticalAlign=bottom;endArrow=open;endSize=8;strokeColor=#ff0000;rounded=0;labelBackgroundColor=default;align=center;fontFamily=Helvetica;fontSize=11;fontColor=default;shape=connector;" edge="1" source="fHgrOc14rEPT_G6fywUK-46" parent="1">
          <mxGeometry relative="1" as="geometry">
            <mxPoint x="360" y="578" as="targetPoint" />
          </mxGeometry>
        </mxCell>
        <mxCell id="fHgrOc14rEPT_G6fywUK-54" style="edgeStyle=orthogonalEdgeStyle;shape=connector;rounded=0;orthogonalLoop=1;jettySize=auto;html=1;exitX=0.5;exitY=1;exitDx=0;exitDy=0;labelBackgroundColor=default;strokeColor=#ff0000;align=center;verticalAlign=bottom;fontFamily=Helvetica;fontSize=11;fontColor=default;endArrow=open;endSize=8;" edge="1" parent="1" source="fHgrOc14rEPT_G6fywUK-49" target="fHgrOc14rEPT_G6fywUK-51">
          <mxGeometry relative="1" as="geometry" />
        </mxCell>
        <mxCell id="fHgrOc14rEPT_G6fywUK-49" value="Run: Dotnet Publish" style="rounded=1;whiteSpace=wrap;html=1;arcSize=40;fontColor=#000000;fillColor=#ffffc0;strokeColor=#ff0000;fontFamily=Helvetica;fontSize=11;" vertex="1" parent="1">
          <mxGeometry x="100" y="498" width="120" height="40" as="geometry" />
        </mxCell>
        <mxCell id="fHgrOc14rEPT_G6fywUK-55" style="edgeStyle=orthogonalEdgeStyle;shape=connector;rounded=0;orthogonalLoop=1;jettySize=auto;html=1;exitX=0;exitY=0.5;exitDx=0;exitDy=0;labelBackgroundColor=default;strokeColor=#ff0000;align=center;verticalAlign=bottom;fontFamily=Helvetica;fontSize=11;fontColor=default;endArrow=open;endSize=8;" edge="1" parent="1" source="fHgrOc14rEPT_G6fywUK-51">
          <mxGeometry relative="1" as="geometry">
            <mxPoint x="40" y="598" as="targetPoint" />
          </mxGeometry>
        </mxCell>
        <mxCell id="fHgrOc14rEPT_G6fywUK-56" value="NO" style="edgeLabel;html=1;align=center;verticalAlign=middle;resizable=0;points=[];fontSize=11;fontFamily=Helvetica;fontColor=default;" vertex="1" connectable="0" parent="fHgrOc14rEPT_G6fywUK-55">
          <mxGeometry x="-0.204" y="2" relative="1" as="geometry">
            <mxPoint as="offset" />
          </mxGeometry>
        </mxCell>
        <mxCell id="fHgrOc14rEPT_G6fywUK-97" style="edgeStyle=orthogonalEdgeStyle;shape=connector;rounded=0;orthogonalLoop=1;jettySize=auto;html=1;exitX=0.5;exitY=1;exitDx=0;exitDy=0;labelBackgroundColor=default;strokeColor=#ff0000;align=center;verticalAlign=bottom;fontFamily=Helvetica;fontSize=11;fontColor=default;endArrow=open;endSize=8;" edge="1" parent="1" source="fHgrOc14rEPT_G6fywUK-51" target="fHgrOc14rEPT_G6fywUK-26">
          <mxGeometry relative="1" as="geometry" />
        </mxCell>
        <mxCell id="fHgrOc14rEPT_G6fywUK-98" value="YES" style="edgeLabel;html=1;align=center;verticalAlign=middle;resizable=0;points=[];fontSize=11;fontFamily=Helvetica;fontColor=default;" vertex="1" connectable="0" parent="fHgrOc14rEPT_G6fywUK-97">
          <mxGeometry x="0.0667" y="3" relative="1" as="geometry">
            <mxPoint as="offset" />
          </mxGeometry>
        </mxCell>
        <mxCell id="fHgrOc14rEPT_G6fywUK-51" value="Success" style="rhombus;whiteSpace=wrap;html=1;fontColor=#000000;fillColor=#ffffc0;strokeColor=#ff0000;fontFamily=Helvetica;fontSize=11;" vertex="1" parent="1">
          <mxGeometry x="120" y="578" width="80" height="40" as="geometry" />
        </mxCell>
        <mxCell id="fHgrOc14rEPT_G6fywUK-84" style="edgeStyle=orthogonalEdgeStyle;shape=connector;rounded=0;orthogonalLoop=1;jettySize=auto;html=1;exitX=0.5;exitY=1;exitDx=0;exitDy=0;entryX=0.5;entryY=0;entryDx=0;entryDy=0;labelBackgroundColor=default;strokeColor=#ff0000;align=center;verticalAlign=bottom;fontFamily=Helvetica;fontSize=11;fontColor=default;endArrow=open;endSize=8;" edge="1" parent="1" source="fHgrOc14rEPT_G6fywUK-58" target="fHgrOc14rEPT_G6fywUK-81">
          <mxGeometry relative="1" as="geometry" />
        </mxCell>
        <mxCell id="fHgrOc14rEPT_G6fywUK-58" value="Run: Dotnet Restore" style="rounded=1;whiteSpace=wrap;html=1;arcSize=40;fontColor=#000000;fillColor=#ffffc0;strokeColor=#ff0000;fontFamily=Helvetica;fontSize=11;" vertex="1" parent="1">
          <mxGeometry x="100" y="178" width="120" height="40" as="geometry" />
        </mxCell>
        <mxCell id="fHgrOc14rEPT_G6fywUK-69" value="" style="edgeStyle=orthogonalEdgeStyle;shape=connector;rounded=0;orthogonalLoop=1;jettySize=auto;html=1;labelBackgroundColor=default;strokeColor=#ff0000;align=center;verticalAlign=bottom;fontFamily=Helvetica;fontSize=11;fontColor=default;endArrow=open;endSize=8;" edge="1" parent="1" source="fHgrOc14rEPT_G6fywUK-64">
          <mxGeometry relative="1" as="geometry">
            <mxPoint x="360" y="261.5" as="targetPoint" />
          </mxGeometry>
        </mxCell>
        <mxCell id="fHgrOc14rEPT_G6fywUK-64" value="Run: Dotnet Restore" style="rounded=1;whiteSpace=wrap;html=1;arcSize=40;fontColor=#000000;fillColor=#ffffc0;strokeColor=#ff0000;fontFamily=Helvetica;fontSize=11;" vertex="1" parent="1">
          <mxGeometry x="300" y="178" width="120" height="40" as="geometry" />
        </mxCell>
        <mxCell id="fHgrOc14rEPT_G6fywUK-76" style="edgeStyle=orthogonalEdgeStyle;shape=connector;rounded=0;orthogonalLoop=1;jettySize=auto;html=1;exitX=0.5;exitY=1;exitDx=0;exitDy=0;labelBackgroundColor=default;strokeColor=#ff0000;align=center;verticalAlign=bottom;fontFamily=Helvetica;fontSize=11;fontColor=default;endArrow=open;endSize=8;" edge="1" parent="1" source="fHgrOc14rEPT_G6fywUK-72" target="fHgrOc14rEPT_G6fywUK-27">
          <mxGeometry relative="1" as="geometry" />
        </mxCell>
        <mxCell id="fHgrOc14rEPT_G6fywUK-77" value="YES" style="edgeLabel;html=1;align=center;verticalAlign=middle;resizable=0;points=[];fontSize=11;fontFamily=Helvetica;fontColor=default;" vertex="1" connectable="0" parent="fHgrOc14rEPT_G6fywUK-76">
          <mxGeometry x="-0.3182" y="2" relative="1" as="geometry">
            <mxPoint as="offset" />
          </mxGeometry>
        </mxCell>
        <mxCell id="fHgrOc14rEPT_G6fywUK-79" value="" style="edgeStyle=orthogonalEdgeStyle;shape=connector;rounded=0;orthogonalLoop=1;jettySize=auto;html=1;labelBackgroundColor=default;strokeColor=#ff0000;align=center;verticalAlign=bottom;fontFamily=Helvetica;fontSize=11;fontColor=default;endArrow=open;endSize=8;" edge="1" parent="1" source="fHgrOc14rEPT_G6fywUK-72">
          <mxGeometry relative="1" as="geometry">
            <mxPoint x="480" y="268" as="targetPoint" />
          </mxGeometry>
        </mxCell>
        <mxCell id="fHgrOc14rEPT_G6fywUK-80" value="NO" style="edgeLabel;html=1;align=center;verticalAlign=middle;resizable=0;points=[];fontSize=11;fontFamily=Helvetica;fontColor=default;" vertex="1" connectable="0" parent="fHgrOc14rEPT_G6fywUK-79">
          <mxGeometry x="-0.0706" y="3" relative="1" as="geometry">
            <mxPoint as="offset" />
          </mxGeometry>
        </mxCell>
        <mxCell id="fHgrOc14rEPT_G6fywUK-72" value="Success" style="rhombus;whiteSpace=wrap;html=1;fontColor=#000000;fillColor=#ffffc0;strokeColor=#ff0000;fontFamily=Helvetica;fontSize=11;" vertex="1" parent="1">
          <mxGeometry x="320" y="248" width="80" height="40" as="geometry" />
        </mxCell>
        <mxCell id="fHgrOc14rEPT_G6fywUK-85" style="edgeStyle=orthogonalEdgeStyle;shape=connector;rounded=0;orthogonalLoop=1;jettySize=auto;html=1;exitX=0.5;exitY=1;exitDx=0;exitDy=0;labelBackgroundColor=default;strokeColor=#ff0000;align=center;verticalAlign=bottom;fontFamily=Helvetica;fontSize=11;fontColor=default;endArrow=open;endSize=8;" edge="1" parent="1" source="fHgrOc14rEPT_G6fywUK-81" target="fHgrOc14rEPT_G6fywUK-6">
          <mxGeometry relative="1" as="geometry" />
        </mxCell>
        <mxCell id="fHgrOc14rEPT_G6fywUK-86" value="YES" style="edgeLabel;html=1;align=center;verticalAlign=middle;resizable=0;points=[];fontSize=11;fontFamily=Helvetica;fontColor=default;" vertex="1" connectable="0" parent="fHgrOc14rEPT_G6fywUK-85">
          <mxGeometry x="0.08" y="-1" relative="1" as="geometry">
            <mxPoint x="1" y="-7" as="offset" />
          </mxGeometry>
        </mxCell>
        <mxCell id="fHgrOc14rEPT_G6fywUK-87" style="edgeStyle=orthogonalEdgeStyle;shape=connector;rounded=0;orthogonalLoop=1;jettySize=auto;html=1;exitX=0;exitY=0.5;exitDx=0;exitDy=0;labelBackgroundColor=default;strokeColor=#ff0000;align=center;verticalAlign=bottom;fontFamily=Helvetica;fontSize=11;fontColor=default;endArrow=open;endSize=8;" edge="1" parent="1" source="fHgrOc14rEPT_G6fywUK-81">
          <mxGeometry relative="1" as="geometry">
            <mxPoint x="40" y="268" as="targetPoint" />
          </mxGeometry>
        </mxCell>
        <mxCell id="fHgrOc14rEPT_G6fywUK-88" value="NO" style="edgeLabel;html=1;align=center;verticalAlign=middle;resizable=0;points=[];fontSize=11;fontFamily=Helvetica;fontColor=default;" vertex="1" connectable="0" parent="fHgrOc14rEPT_G6fywUK-87">
          <mxGeometry x="-0.276" y="-3" relative="1" as="geometry">
            <mxPoint as="offset" />
          </mxGeometry>
        </mxCell>
        <mxCell id="fHgrOc14rEPT_G6fywUK-81" value="Success" style="rhombus;whiteSpace=wrap;html=1;fontColor=#000000;fillColor=#ffffc0;strokeColor=#ff0000;fontFamily=Helvetica;fontSize=11;" vertex="1" parent="1">
          <mxGeometry x="120" y="248" width="80" height="40" as="geometry" />
        </mxCell>
        <mxCell id="fHgrOc14rEPT_G6fywUK-93" style="edgeStyle=orthogonalEdgeStyle;shape=connector;rounded=0;orthogonalLoop=1;jettySize=auto;html=1;exitX=1;exitY=0.5;exitDx=0;exitDy=0;labelBackgroundColor=default;strokeColor=#ff0000;align=center;verticalAlign=bottom;fontFamily=Helvetica;fontSize=11;fontColor=default;endArrow=open;endSize=8;" edge="1" parent="1" source="fHgrOc14rEPT_G6fywUK-90">
          <mxGeometry relative="1" as="geometry">
            <mxPoint x="480" y="598" as="targetPoint" />
          </mxGeometry>
        </mxCell>
        <mxCell id="fHgrOc14rEPT_G6fywUK-94" value="NO" style="edgeLabel;html=1;align=center;verticalAlign=middle;resizable=0;points=[];fontSize=11;fontFamily=Helvetica;fontColor=default;" vertex="1" connectable="0" parent="fHgrOc14rEPT_G6fywUK-93">
          <mxGeometry x="0.1293" y="-4" relative="1" as="geometry">
            <mxPoint as="offset" />
          </mxGeometry>
        </mxCell>
        <mxCell id="fHgrOc14rEPT_G6fywUK-95" style="edgeStyle=orthogonalEdgeStyle;shape=connector;rounded=0;orthogonalLoop=1;jettySize=auto;html=1;exitX=0.5;exitY=1;exitDx=0;exitDy=0;labelBackgroundColor=default;strokeColor=#ff0000;align=center;verticalAlign=bottom;fontFamily=Helvetica;fontSize=11;fontColor=default;endArrow=open;endSize=8;" edge="1" parent="1" source="fHgrOc14rEPT_G6fywUK-90">
          <mxGeometry relative="1" as="geometry">
            <mxPoint x="360" y="678" as="targetPoint" />
          </mxGeometry>
        </mxCell>
        <mxCell id="fHgrOc14rEPT_G6fywUK-104" value="YES" style="edgeLabel;html=1;align=center;verticalAlign=middle;resizable=0;points=[];fontSize=11;fontFamily=Helvetica;fontColor=default;" vertex="1" connectable="0" parent="fHgrOc14rEPT_G6fywUK-95">
          <mxGeometry x="-0.1075" y="-2" relative="1" as="geometry">
            <mxPoint as="offset" />
          </mxGeometry>
        </mxCell>
        <mxCell id="fHgrOc14rEPT_G6fywUK-90" value="Success" style="rhombus;whiteSpace=wrap;html=1;fontColor=#000000;fillColor=#ffffc0;strokeColor=#ff0000;fontFamily=Helvetica;fontSize=11;" vertex="1" parent="1">
          <mxGeometry x="320" y="578" width="80" height="40" as="geometry" />
        </mxCell>
        <mxCell id="fHgrOc14rEPT_G6fywUK-102" value="DEPLOY" style="rounded=1;whiteSpace=wrap;html=1;arcSize=40;fontColor=#000000;fillColor=#ffffc0;strokeColor=#ff0000;fontFamily=Helvetica;fontSize=11;" vertex="1" parent="1">
          <mxGeometry x="300" y="678" width="120" height="40" as="geometry" />
        </mxCell>
        <mxCell id="fHgrOc14rEPT_G6fywUK-103" value="" style="edgeStyle=orthogonalEdgeStyle;html=1;verticalAlign=bottom;endArrow=open;endSize=8;strokeColor=#ff0000;rounded=0;labelBackgroundColor=default;align=center;fontFamily=Helvetica;fontSize=11;fontColor=default;shape=connector;" edge="1" source="fHgrOc14rEPT_G6fywUK-102" parent="1">
          <mxGeometry relative="1" as="geometry">
            <mxPoint x="360" y="748" as="targetPoint" />
          </mxGeometry>
        </mxCell>
        <mxCell id="fHgrOc14rEPT_G6fywUK-110" style="edgeStyle=orthogonalEdgeStyle;shape=connector;rounded=0;orthogonalLoop=1;jettySize=auto;html=1;exitX=0.5;exitY=1;exitDx=0;exitDy=0;labelBackgroundColor=default;strokeColor=#ff0000;align=center;verticalAlign=bottom;fontFamily=Helvetica;fontSize=11;fontColor=default;endArrow=open;endSize=8;" edge="1" parent="1" source="fHgrOc14rEPT_G6fywUK-105" target="fHgrOc14rEPT_G6fywUK-107">
          <mxGeometry relative="1" as="geometry" />
        </mxCell>
        <mxCell id="fHgrOc14rEPT_G6fywUK-105" value="Run: azure/webapps-deploy@v2" style="rounded=1;whiteSpace=wrap;html=1;arcSize=40;fontColor=#000000;fillColor=#ffffc0;strokeColor=#ff0000;fontFamily=Helvetica;fontSize=11;" vertex="1" parent="1">
          <mxGeometry x="300" y="748" width="120" height="40" as="geometry" />
        </mxCell>
        <mxCell id="fHgrOc14rEPT_G6fywUK-107" value="Success" style="rhombus;whiteSpace=wrap;html=1;fontColor=#000000;fillColor=#ffffc0;strokeColor=#ff0000;fontFamily=Helvetica;fontSize=11;" vertex="1" parent="1">
          <mxGeometry x="320" y="828" width="80" height="40" as="geometry" />
        </mxCell>
        <mxCell id="fHgrOc14rEPT_G6fywUK-108" value="no" style="edgeStyle=orthogonalEdgeStyle;html=1;align=left;verticalAlign=bottom;endArrow=open;endSize=8;strokeColor=#ff0000;rounded=0;labelBackgroundColor=default;fontFamily=Helvetica;fontSize=11;fontColor=default;shape=connector;" edge="1" source="fHgrOc14rEPT_G6fywUK-107" parent="1">
          <mxGeometry x="-1" relative="1" as="geometry">
            <mxPoint x="460" y="848" as="targetPoint" />
          </mxGeometry>
        </mxCell>
        <mxCell id="fHgrOc14rEPT_G6fywUK-109" value="yes" style="edgeStyle=orthogonalEdgeStyle;html=1;align=left;verticalAlign=top;endArrow=open;endSize=8;strokeColor=#ff0000;rounded=0;labelBackgroundColor=default;fontFamily=Helvetica;fontSize=11;fontColor=default;shape=connector;" edge="1" source="fHgrOc14rEPT_G6fywUK-107" parent="1">
          <mxGeometry x="-1" relative="1" as="geometry">
            <mxPoint x="360" y="918" as="targetPoint" />
          </mxGeometry>
        </mxCell>
        <mxCell id="fHgrOc14rEPT_G6fywUK-111" value="" style="ellipse;html=1;shape=endState;fillColor=#000000;strokeColor=#ff0000;fontFamily=Helvetica;fontSize=11;fontColor=default;" vertex="1" parent="1">
          <mxGeometry x="345" y="918" width="30" height="30" as="geometry" />
        </mxCell>
        <mxCell id="fHgrOc14rEPT_G6fywUK-112" value="End" style="text;html=1;align=center;verticalAlign=middle;resizable=0;points=[];autosize=1;strokeColor=none;fillColor=none;fontSize=11;fontFamily=Helvetica;fontColor=default;" vertex="1" parent="1">
          <mxGeometry x="340" y="946" width="40" height="30" as="geometry" />
        </mxCell>
        <mxCell id="fHgrOc14rEPT_G6fywUK-113" value="End" style="text;html=1;align=center;verticalAlign=middle;resizable=0;points=[];autosize=1;strokeColor=none;fillColor=none;fontSize=11;fontFamily=Helvetica;fontColor=default;" vertex="1" parent="1">
          <mxGeometry x="140" y="708" width="40" height="30" as="geometry" />
        </mxCell>
        <mxCell id="fHgrOc14rEPT_G6fywUK-132" style="edgeStyle=orthogonalEdgeStyle;shape=connector;rounded=0;orthogonalLoop=1;jettySize=auto;html=1;exitX=0.5;exitY=1;exitDx=0;exitDy=0;entryX=0.5;entryY=0;entryDx=0;entryDy=0;labelBackgroundColor=default;strokeColor=#ff0000;align=center;verticalAlign=bottom;fontFamily=Helvetica;fontSize=11;fontColor=default;endArrow=open;endSize=8;" edge="1" parent="1" source="fHgrOc14rEPT_G6fywUK-115" target="fHgrOc14rEPT_G6fywUK-126">
          <mxGeometry relative="1" as="geometry" />
        </mxCell>
        <mxCell id="fHgrOc14rEPT_G6fywUK-115" value="Release" style="rounded=1;whiteSpace=wrap;html=1;arcSize=40;fontColor=#000000;fillColor=#ffffc0;strokeColor=#ff0000;fontFamily=Helvetica;fontSize=11;" vertex="1" parent="1">
          <mxGeometry x="500" y="98" width="120" height="40" as="geometry" />
        </mxCell>
        <mxCell id="fHgrOc14rEPT_G6fywUK-118" style="edgeStyle=orthogonalEdgeStyle;shape=connector;rounded=0;orthogonalLoop=1;jettySize=auto;html=1;labelBackgroundColor=default;strokeColor=#ff0000;align=center;verticalAlign=bottom;fontFamily=Helvetica;fontSize=11;fontColor=default;endArrow=open;endSize=8;" edge="1" parent="1" source="fHgrOc14rEPT_G6fywUK-119" target="fHgrOc14rEPT_G6fywUK-124">
          <mxGeometry relative="1" as="geometry" />
        </mxCell>
        <mxCell id="fHgrOc14rEPT_G6fywUK-119" value="Run: Dotnet Build" style="rounded=1;whiteSpace=wrap;html=1;arcSize=40;fontColor=#000000;fillColor=#ffffc0;strokeColor=#ff0000;fontFamily=Helvetica;fontSize=11;" vertex="1" parent="1">
          <mxGeometry x="500" y="338" width="120" height="40" as="geometry" />
        </mxCell>
        <mxCell id="fHgrOc14rEPT_G6fywUK-120" style="edgeStyle=orthogonalEdgeStyle;shape=connector;rounded=0;orthogonalLoop=1;jettySize=auto;html=1;labelBackgroundColor=default;strokeColor=#ff0000;align=center;verticalAlign=bottom;fontFamily=Helvetica;fontSize=11;fontColor=default;endArrow=open;endSize=8;" edge="1" parent="1" source="fHgrOc14rEPT_G6fywUK-124">
          <mxGeometry relative="1" as="geometry">
            <mxPoint x="680" y="422" as="targetPoint" />
          </mxGeometry>
        </mxCell>
        <mxCell id="fHgrOc14rEPT_G6fywUK-121" value="NO" style="edgeLabel;html=1;align=center;verticalAlign=middle;resizable=0;points=[];fontSize=11;fontFamily=Helvetica;fontColor=default;" vertex="1" connectable="0" parent="fHgrOc14rEPT_G6fywUK-120">
          <mxGeometry x="-0.3292" y="1" relative="1" as="geometry">
            <mxPoint as="offset" />
          </mxGeometry>
        </mxCell>
        <mxCell id="fHgrOc14rEPT_G6fywUK-122" style="edgeStyle=orthogonalEdgeStyle;shape=connector;rounded=0;orthogonalLoop=1;jettySize=auto;html=1;exitX=0.5;exitY=1;exitDx=0;exitDy=0;entryX=0.5;entryY=0;entryDx=0;entryDy=0;labelBackgroundColor=default;strokeColor=#ff0000;align=center;verticalAlign=bottom;fontFamily=Helvetica;fontSize=11;fontColor=default;endArrow=open;endSize=8;" edge="1" parent="1" source="fHgrOc14rEPT_G6fywUK-124">
          <mxGeometry relative="1" as="geometry">
            <mxPoint x="560" y="498" as="targetPoint" />
          </mxGeometry>
        </mxCell>
        <mxCell id="fHgrOc14rEPT_G6fywUK-123" value="YES" style="edgeLabel;html=1;align=center;verticalAlign=middle;resizable=0;points=[];fontSize=11;fontFamily=Helvetica;fontColor=default;" vertex="1" connectable="0" parent="fHgrOc14rEPT_G6fywUK-122">
          <mxGeometry x="-0.2143" y="1" relative="1" as="geometry">
            <mxPoint as="offset" />
          </mxGeometry>
        </mxCell>
        <mxCell id="fHgrOc14rEPT_G6fywUK-124" value="Success" style="rhombus;whiteSpace=wrap;html=1;fontColor=#000000;fillColor=#ffffc0;strokeColor=#ff0000;" vertex="1" parent="1">
          <mxGeometry x="520" y="402" width="80" height="40" as="geometry" />
        </mxCell>
        <mxCell id="fHgrOc14rEPT_G6fywUK-125" value="" style="edgeStyle=orthogonalEdgeStyle;shape=connector;rounded=0;orthogonalLoop=1;jettySize=auto;html=1;labelBackgroundColor=default;strokeColor=#ff0000;align=center;verticalAlign=bottom;fontFamily=Helvetica;fontSize=11;fontColor=default;endArrow=open;endSize=8;" edge="1" parent="1" source="fHgrOc14rEPT_G6fywUK-126">
          <mxGeometry relative="1" as="geometry">
            <mxPoint x="560" y="261.5" as="targetPoint" />
          </mxGeometry>
        </mxCell>
        <mxCell id="fHgrOc14rEPT_G6fywUK-126" value="Run: Dotnet Restore" style="rounded=1;whiteSpace=wrap;html=1;arcSize=40;fontColor=#000000;fillColor=#ffffc0;strokeColor=#ff0000;fontFamily=Helvetica;fontSize=11;" vertex="1" parent="1">
          <mxGeometry x="500" y="178" width="120" height="40" as="geometry" />
        </mxCell>
        <mxCell id="fHgrOc14rEPT_G6fywUK-127" style="edgeStyle=orthogonalEdgeStyle;shape=connector;rounded=0;orthogonalLoop=1;jettySize=auto;html=1;exitX=0.5;exitY=1;exitDx=0;exitDy=0;labelBackgroundColor=default;strokeColor=#ff0000;align=center;verticalAlign=bottom;fontFamily=Helvetica;fontSize=11;fontColor=default;endArrow=open;endSize=8;" edge="1" parent="1" source="fHgrOc14rEPT_G6fywUK-131" target="fHgrOc14rEPT_G6fywUK-119">
          <mxGeometry relative="1" as="geometry" />
        </mxCell>
        <mxCell id="fHgrOc14rEPT_G6fywUK-128" value="YES" style="edgeLabel;html=1;align=center;verticalAlign=middle;resizable=0;points=[];fontSize=11;fontFamily=Helvetica;fontColor=default;" vertex="1" connectable="0" parent="fHgrOc14rEPT_G6fywUK-127">
          <mxGeometry x="-0.3182" y="2" relative="1" as="geometry">
            <mxPoint as="offset" />
          </mxGeometry>
        </mxCell>
        <mxCell id="fHgrOc14rEPT_G6fywUK-129" value="" style="edgeStyle=orthogonalEdgeStyle;shape=connector;rounded=0;orthogonalLoop=1;jettySize=auto;html=1;labelBackgroundColor=default;strokeColor=#ff0000;align=center;verticalAlign=bottom;fontFamily=Helvetica;fontSize=11;fontColor=default;endArrow=open;endSize=8;" edge="1" parent="1" source="fHgrOc14rEPT_G6fywUK-131">
          <mxGeometry relative="1" as="geometry">
            <mxPoint x="680" y="268" as="targetPoint" />
          </mxGeometry>
        </mxCell>
        <mxCell id="fHgrOc14rEPT_G6fywUK-130" value="NO" style="edgeLabel;html=1;align=center;verticalAlign=middle;resizable=0;points=[];fontSize=11;fontFamily=Helvetica;fontColor=default;" vertex="1" connectable="0" parent="fHgrOc14rEPT_G6fywUK-129">
          <mxGeometry x="-0.0706" y="3" relative="1" as="geometry">
            <mxPoint as="offset" />
          </mxGeometry>
        </mxCell>
        <mxCell id="fHgrOc14rEPT_G6fywUK-131" value="Success" style="rhombus;whiteSpace=wrap;html=1;fontColor=#000000;fillColor=#ffffc0;strokeColor=#ff0000;fontFamily=Helvetica;fontSize=11;" vertex="1" parent="1">
          <mxGeometry x="520" y="248" width="80" height="40" as="geometry" />
        </mxCell>
        <mxCell id="fHgrOc14rEPT_G6fywUK-138" style="edgeStyle=orthogonalEdgeStyle;shape=connector;rounded=0;orthogonalLoop=1;jettySize=auto;html=1;exitX=0.5;exitY=1;exitDx=0;exitDy=0;labelBackgroundColor=default;strokeColor=#ff0000;align=center;verticalAlign=bottom;fontFamily=Helvetica;fontSize=11;fontColor=default;endArrow=open;endSize=8;" edge="1" parent="1" source="fHgrOc14rEPT_G6fywUK-133" target="fHgrOc14rEPT_G6fywUK-135">
          <mxGeometry relative="1" as="geometry" />
        </mxCell>
        <mxCell id="fHgrOc14rEPT_G6fywUK-133" value="Test: Chirp.Infrastructure" style="rounded=1;whiteSpace=wrap;html=1;arcSize=40;fontColor=#000000;fillColor=#ffffc0;strokeColor=#ff0000;fontFamily=Helvetica;fontSize=11;" vertex="1" parent="1">
          <mxGeometry x="500" y="498" width="120" height="40" as="geometry" />
        </mxCell>
        <mxCell id="fHgrOc14rEPT_G6fywUK-135" value="Condition" style="rhombus;whiteSpace=wrap;html=1;fontColor=#000000;fillColor=#ffffc0;strokeColor=#ff0000;fontFamily=Helvetica;fontSize=11;" vertex="1" parent="1">
          <mxGeometry x="520" y="578" width="80" height="40" as="geometry" />
        </mxCell>
        <mxCell id="fHgrOc14rEPT_G6fywUK-136" value="no" style="edgeStyle=orthogonalEdgeStyle;html=1;align=left;verticalAlign=bottom;endArrow=open;endSize=8;strokeColor=#ff0000;rounded=0;labelBackgroundColor=default;fontFamily=Helvetica;fontSize=11;fontColor=default;shape=connector;" edge="1" source="fHgrOc14rEPT_G6fywUK-135" parent="1">
          <mxGeometry x="-1" relative="1" as="geometry">
            <mxPoint x="680" y="598" as="targetPoint" />
          </mxGeometry>
        </mxCell>
        <mxCell id="fHgrOc14rEPT_G6fywUK-137" value="" style="edgeStyle=orthogonalEdgeStyle;html=1;align=left;verticalAlign=top;endArrow=open;endSize=8;strokeColor=#ff0000;rounded=0;labelBackgroundColor=default;fontFamily=Helvetica;fontSize=11;fontColor=default;shape=connector;" edge="1" source="fHgrOc14rEPT_G6fywUK-135" parent="1">
          <mxGeometry x="-0.3389" y="40" relative="1" as="geometry">
            <mxPoint x="560" y="678" as="targetPoint" />
            <mxPoint as="offset" />
          </mxGeometry>
        </mxCell>
        <mxCell id="fHgrOc14rEPT_G6fywUK-139" value="YES" style="edgeLabel;html=1;align=center;verticalAlign=middle;resizable=0;points=[];fontSize=11;fontFamily=Helvetica;fontColor=default;" vertex="1" connectable="0" parent="fHgrOc14rEPT_G6fywUK-137">
          <mxGeometry x="0.0082" y="3" relative="1" as="geometry">
            <mxPoint y="-1" as="offset" />
          </mxGeometry>
        </mxCell>
        <mxCell id="fHgrOc14rEPT_G6fywUK-140" value="Test: Chirp.Web" style="rounded=1;whiteSpace=wrap;html=1;arcSize=40;fontColor=#000000;fillColor=#ffffc0;strokeColor=#ff0000;fontFamily=Helvetica;fontSize=11;" vertex="1" parent="1">
          <mxGeometry x="500" y="678" width="120" height="40" as="geometry" />
        </mxCell>
        <mxCell id="fHgrOc14rEPT_G6fywUK-141" value="" style="edgeStyle=orthogonalEdgeStyle;html=1;verticalAlign=bottom;endArrow=open;endSize=8;strokeColor=#ff0000;rounded=0;labelBackgroundColor=default;align=center;fontFamily=Helvetica;fontSize=11;fontColor=default;shape=connector;" edge="1" source="fHgrOc14rEPT_G6fywUK-140" parent="1">
          <mxGeometry relative="1" as="geometry">
            <mxPoint x="560" y="748" as="targetPoint" />
            <Array as="points">
              <mxPoint x="560" y="748" />
              <mxPoint x="561" y="748" />
            </Array>
          </mxGeometry>
        </mxCell>
        <mxCell id="fHgrOc14rEPT_G6fywUK-147" style="edgeStyle=orthogonalEdgeStyle;shape=connector;rounded=0;orthogonalLoop=1;jettySize=auto;html=1;exitX=0.5;exitY=1;exitDx=0;exitDy=0;labelBackgroundColor=default;strokeColor=#ff0000;align=center;verticalAlign=bottom;fontFamily=Helvetica;fontSize=11;fontColor=default;endArrow=open;endSize=8;" edge="1" parent="1" source="fHgrOc14rEPT_G6fywUK-142" target="fHgrOc14rEPT_G6fywUK-145">
          <mxGeometry relative="1" as="geometry" />
        </mxCell>
        <mxCell id="fHgrOc14rEPT_G6fywUK-142" value="Success" style="rhombus;whiteSpace=wrap;html=1;fontColor=#000000;fillColor=#ffffc0;strokeColor=#ff0000;fontFamily=Helvetica;fontSize=11;" vertex="1" parent="1">
          <mxGeometry x="520" y="748" width="80" height="40" as="geometry" />
        </mxCell>
        <mxCell id="fHgrOc14rEPT_G6fywUK-143" value="no" style="edgeStyle=orthogonalEdgeStyle;html=1;align=left;verticalAlign=bottom;endArrow=open;endSize=8;strokeColor=#ff0000;rounded=0;labelBackgroundColor=default;fontFamily=Helvetica;fontSize=11;fontColor=default;shape=connector;" edge="1" source="fHgrOc14rEPT_G6fywUK-142" parent="1">
          <mxGeometry x="-1" relative="1" as="geometry">
            <mxPoint x="680" y="768" as="targetPoint" />
          </mxGeometry>
        </mxCell>
        <mxCell id="fHgrOc14rEPT_G6fywUK-150" style="edgeStyle=orthogonalEdgeStyle;shape=connector;rounded=0;orthogonalLoop=1;jettySize=auto;html=1;exitX=0.5;exitY=1;exitDx=0;exitDy=0;labelBackgroundColor=default;strokeColor=#ff0000;align=center;verticalAlign=bottom;fontFamily=Helvetica;fontSize=11;fontColor=default;endArrow=open;endSize=8;" edge="1" parent="1" source="fHgrOc14rEPT_G6fywUK-145" target="fHgrOc14rEPT_G6fywUK-148">
          <mxGeometry relative="1" as="geometry" />
        </mxCell>
        <mxCell id="fHgrOc14rEPT_G6fywUK-145" value="Build Releases: Linux, Windows &amp;amp; MacOS" style="rounded=1;whiteSpace=wrap;html=1;arcSize=40;fontColor=#000000;fillColor=#ffffc0;strokeColor=#ff0000;fontFamily=Helvetica;fontSize=11;" vertex="1" parent="1">
          <mxGeometry x="500" y="828" width="120" height="40" as="geometry" />
        </mxCell>
        <mxCell id="fHgrOc14rEPT_G6fywUK-148" value="Publish Release" style="rounded=1;whiteSpace=wrap;html=1;arcSize=40;fontColor=#000000;fillColor=#ffffc0;strokeColor=#ff0000;fontFamily=Helvetica;fontSize=11;" vertex="1" parent="1">
          <mxGeometry x="500" y="908" width="120" height="40" as="geometry" />
        </mxCell>
        <mxCell id="fHgrOc14rEPT_G6fywUK-149" value="" style="edgeStyle=orthogonalEdgeStyle;html=1;verticalAlign=bottom;endArrow=open;endSize=8;strokeColor=#ff0000;rounded=0;labelBackgroundColor=default;align=center;fontFamily=Helvetica;fontSize=11;fontColor=default;shape=connector;" edge="1" source="fHgrOc14rEPT_G6fywUK-148" parent="1">
          <mxGeometry relative="1" as="geometry">
            <mxPoint x="560" y="978" as="targetPoint" />
          </mxGeometry>
        </mxCell>
        <mxCell id="fHgrOc14rEPT_G6fywUK-151" value="" style="ellipse;html=1;shape=endState;fillColor=#000000;strokeColor=#ff0000;fontFamily=Helvetica;fontSize=11;fontColor=default;" vertex="1" parent="1">
          <mxGeometry x="545" y="976" width="30" height="30" as="geometry" />
        </mxCell>
        <mxCell id="fHgrOc14rEPT_G6fywUK-152" value="End" style="text;html=1;align=center;verticalAlign=middle;resizable=0;points=[];autosize=1;strokeColor=none;fillColor=none;fontSize=11;fontFamily=Helvetica;fontColor=default;" vertex="1" parent="1">
          <mxGeometry x="540" y="1006" width="40" height="30" as="geometry" />
        </mxCell>
        <mxCell id="fHgrOc14rEPT_G6fywUK-153" value="Do something about no arrows&lt;br&gt;&lt;br&gt;&lt;br&gt;where Test?" style="text;html=1;align=center;verticalAlign=middle;resizable=0;points=[];autosize=1;strokeColor=none;fillColor=none;fontSize=11;fontFamily=Helvetica;fontColor=default;" vertex="1" parent="1">
          <mxGeometry x="875" y="70" width="168" height="65" as="geometry" />
        </mxCell>
      </root>
    </mxGraphModel>
  </diagram>
</mxfile>
